# xmcd
#
# Track frame offsets:
#	150
#	16088
#	32909
#	47754
#	63677
#	77729
#	92363
#	103964
#	118574
#	134985
#	145960
#	160698
#	176732
#	191312
#	208315
#	226891
#	241286
#	255332
#	267080
#	279020
#	293158
#	308358
#	328525
#
# Disc length: 4628 seconds
#
# Revision: 0
# Processed by: cddbd v1.5.2PL0 Copyright (c) Steve Scherf et al.
# Submitted via: EasyCDDAExtractor 15.0.0.1
#
DISCID=3f121217
DTITLE=Marco and Fernando - Ao vivo
DYEAR=1900
DGENRE=
TTITLE0=Sua jogada
TTITLE1=E paixao
TTITLE2=Agora chora
TTITLE3=De lua
TTITLE4=Sintomas do amor
TTITLE5=Eu e voce
TTITLE6=So se for agora
TTITLE7=Amigo namorado ou ficante
TTITLE8=E nisso que da
TTITLE9=Eu quero voce so pra mim
TTITLE10=Sera que nao ve
TTITLE11=Ainda esta chovendo
TTITLE12=Te mando flores
TTITLE13=Amor sem juizo
TTITLE14=Fica combinado
TTITLE15=Eu nao quero mais voce
TTITLE16=Confie em mim
TTITLE17=Viciado em outra paixao
TTITLE18=Se quer beijar na boca
TTITLE19=Vem que tem
TTITLE20=Vida e saudade
TTITLE21=Pout-pourri-Boate azul - amargurado
TTITLE22=Minha namorada
EXTD=
EXTT0=
EXTT1=
EXTT2=
EXTT3=
EXTT4=
EXTT5=
EXTT6=
EXTT7=
EXTT8=
EXTT9=
EXTT10=
EXTT11=
EXTT12=
EXTT13=
EXTT14=
EXTT15=
EXTT16=
EXTT17=
EXTT18=
EXTT19=
EXTT20=
EXTT21=
EXTT22=
PLAYORDER=
